<svg xmlns="http://www.w3.org/2000/svg" viewBox="0 0 30 30"><path fill="#f5f5f5" d="M 10 5 C 9.825 5 9.7324219 5.1367187 9.7324219 5.1367188 C 8.9504219 6.1377187 7 9.335 7 11 C 7 12.657 8.343 14 10 14 C 11.657 14 13 12.657 13 11 C 13 9.335 11.049578 6.1377187 10.267578 5.1367188 C 10.267578 5.1367188 10.175 5 10 5 z M 19 6 C 18.847125 6 18.695187 6.0340156 18.554688 6.1035156 C 18.536687 6.1135156 16.73 7 15 7 C 14.553 7 14.102734 6.9395625 13.677734 6.8515625 C 14.031734 7.5325625 14.363422 8.265375 14.607422 8.984375 C 14.737422 8.991375 14.869 9 15 9 C 16.64 9 18.244 8.4176563 19 8.0976562 C 19.756 8.4176563 21.36 9 23 9 C 25.21 9 27.357266 7.9385313 27.447266 7.8945312 C 27.940266 7.6475313 28.140531 7.0486875 27.894531 6.5546875 C 27.647531 6.0596875 27.048687 5.8614688 26.554688 6.1054688 C 26.536688 6.1144688 24.73 7 23 7 C 21.27 7 19.463313 6.1135156 19.445312 6.1035156 C 19.305312 6.0340156 19.152875 6 19 6 z M 3.0625 6.0019531 C 2.67325 5.9784688 2.2899688 6.1834375 2.1054688 6.5546875 C 1.8604688 7.0486875 2.0597344 7.6465313 2.5527344 7.8945312 C 2.6217344 7.9285312 3.8763594 8.54675 5.4433594 8.84375 C 5.6693594 8.20375 5.9614375 7.5572188 6.2734375 6.9492188 C 4.7994375 6.7652187 3.4603125 6.1125156 3.4453125 6.1035156 C 3.3213125 6.0425156 3.19225 6.0097812 3.0625 6.0019531 z M 19 11 C 18.847125 11 18.695187 11.034016 18.554688 11.103516 C 18.536687 11.113516 16.73 12 15 12 C 14.966 12 14.932438 11.995141 14.898438 11.994141 C 14.753438 12.710141 14.445297 13.361641 14.029297 13.931641 C 14.348297 13.971641 14.673 14 15 14 C 16.64 14 18.244 13.417656 19 13.097656 C 19.756 13.417656 21.36 14 23 14 C 25.21 14 27.357266 12.938531 27.447266 12.894531 C 27.940266 12.647531 28.140531 12.048688 27.894531 11.554688 C 27.648531 11.060688 27.049688 10.860516 26.554688 11.103516 C 26.536688 11.113516 24.73 12 23 12 C 21.27 12 19.463313 11.113516 19.445312 11.103516 C 19.305312 11.034016 19.152875 11 19 11 z M 3.0625 11.003906 C 2.6732969 10.980516 2.2911719 11.184188 2.1074219 11.554688 C 1.8624219 12.048687 2.0597344 12.646531 2.5527344 12.894531 C 2.6287344 12.932531 4.1619375 13.681875 5.9609375 13.921875 C 5.4949375 13.279875 5.1892656 12.525078 5.0722656 11.705078 C 4.1452656 11.446078 3.4582656 11.111469 3.4472656 11.105469 C 3.3232656 11.044719 3.1922344 11.011703 3.0625 11.003906 z M 11 16 C 10.847125 16 10.695188 16.034016 10.554688 16.103516 C 10.536687 16.113516 8.73 17 7 17 C 5.27 17 3.4633125 16.113516 3.4453125 16.103516 C 2.9493125 15.860516 2.3504688 16.059688 2.1054688 16.554688 C 1.8594688 17.049688 2.0597344 17.646531 2.5527344 17.894531 C 2.6427344 17.938531 4.79 19 7 19 C 8.64 19 10.244 18.417656 11 18.097656 C 11.722 18.403656 13.218297 18.941234 14.779297 18.990234 C 15.094297 18.265234 15.466125 17.557594 15.828125 16.933594 C 15.555125 16.971594 15.278 17 15 17 C 13.27 17 11.463312 16.113516 11.445312 16.103516 C 11.305312 16.034016 11.152875 16 11 16 z M 19 16 C 18.825 16 18.732422 16.136719 18.732422 16.136719 C 17.950422 17.137719 16 20.335 16 22 C 16 23.657 17.343 25 19 25 C 20.657 25 22 23.657 22 22 C 22 20.335 20.049578 17.137719 19.267578 16.136719 C 19.267578 16.136719 19.175 16 19 16 z M 26.9375 16.001953 C 26.807875 16.00975 26.678438 16.042766 26.554688 16.103516 C 26.536688 16.113516 24.73 17 23 17 C 22.722 17 22.444875 16.972594 22.171875 16.933594 C 22.533875 17.556594 22.906703 18.262328 23.220703 18.986328 C 25.350703 18.920328 27.359266 17.937531 27.447266 17.894531 C 27.940266 17.647531 28.140531 17.048688 27.894531 16.554688 C 27.709281 16.184188 27.326375 15.978563 26.9375 16.001953 z M 11 21 C 10.847125 21 10.693234 21.034016 10.552734 21.103516 C 10.535734 21.113516 8.73 22 7 22 C 5.27 22 3.4633125 21.113516 3.4453125 21.103516 C 2.9493125 20.858516 2.3504688 21.060687 2.1054688 21.554688 C 1.8604687 22.048687 2.0597344 22.647531 2.5527344 22.894531 C 2.6427344 22.939531 4.79 24 7 24 C 8.64 24 10.244 23.417656 11 23.097656 C 11.665 23.379656 12.986156 23.863563 14.410156 23.976562 C 14.148156 23.369562 14 22.702 14 22 C 14 21.97 14.005859 21.93725 14.005859 21.90625 C 12.642859 21.68325 11.460312 21.111516 11.445312 21.103516 C 11.305312 21.034016 11.152875 21 11 21 z M 26.9375 21.001953 C 26.807891 21.00975 26.678438 21.042266 26.554688 21.103516 C 26.539687 21.111516 25.358141 21.68325 23.994141 21.90625 C 23.995141 21.93725 24 21.97 24 22 C 24 22.698 23.85375 23.362797 23.59375 23.966797 C 25.57875 23.807797 27.365266 22.934531 27.447266 22.894531 C 27.940266 22.647531 28.140531 22.048688 27.894531 21.554688 C 27.710031 21.184188 27.326328 20.978562 26.9375 21.001953 z"></path></svg>