<svg xmlns="http://www.w3.org/2000/svg" viewBox="0 0 24 24">    <path d="M 12 3 C 9.108 3 6.6025625 4.6381563 5.3515625 7.0351562 C 2.3425625 7.3591563 0 9.906 0 13 C 0 15.972 2.163 18.433156 5 18.910156 L 5 16.857422 C 3.279 16.410422 2 14.859 2 13 C 2 10.952 3.5324531 9.2433906 5.5644531 9.0253906 L 6.6289062 8.9101562 L 7.1230469 7.9609375 C 8.0770469 6.1349375 9.947 5 12 5 C 14.617 5 16.884578 6.8608281 17.392578 9.4238281 L 17.689453 10.921875 L 19.212891 11.03125 C 20.775891 11.14225 22 12.447 22 14 C 22 15.654 20.654 17 19 17 L 19 19 C 21.761 19 24 16.761 24 14 C 24 11.36 21.948469 9.2201563 19.355469 9.0351562 C 18.674469 5.5941562 15.641 3 12 3 z M 11 13 L 11 19 L 13 19 L 13 13 L 11 13 z M 7 15 L 7 22 L 9 22 L 9 15 L 7 15 z M 15 16 L 15 22 L 17 22 L 17 16 L 15 16 z"></path></svg>