<svg xmlns="http://www.w3.org/2000/svg" viewBox="0 0 30 30"><path fill="#f5f5f5" d="M 7.984375 0.98632812 A 1.0001 1.0001 0 0 0 7 2 L 7 3 A 1.0001 1.0001 0 1 0 9 3 L 9 2 A 1.0001 1.0001 0 0 0 7.984375 0.98632812 z M 21.984375 0.98632812 A 1.0001 1.0001 0 0 0 21 2 L 21 3 A 1.0001 1.0001 0 1 0 23 3 L 23 2 A 1.0001 1.0001 0 0 0 21.984375 0.98632812 z M 14.984375 1.9863281 A 1.0001 1.0001 0 0 0 14 3 L 14 4.0488281 C 8.1674411 4.5304982 3.4817166 9.1720811 3 15 C 3 15.552 3.448 16 4 16 C 4.552 16 6 15 7 15 C 8 15 9 16 10 16 C 11 16 11.998 15.002 15 15 C 18.002 15.002 19 16 20 16 C 21 16 22 15 23 15 C 24 15 25.448 16 26 16 C 26.552 16 27 15.552 27 15 C 26.518283 9.1720811 21.832559 4.5304982 16 4.0488281 L 16 3 A 1.0001 1.0001 0 0 0 14.984375 1.9863281 z M 3.984375 3.9863281 A 1.0001 1.0001 0 0 0 3 5 L 3 6 A 1.0001 1.0001 0 1 0 5 6 L 5 5 A 1.0001 1.0001 0 0 0 3.984375 3.9863281 z M 25.984375 3.9863281 A 1.0001 1.0001 0 0 0 25 5 L 25 6 A 1.0001 1.0001 0 1 0 27 6 L 27 5 A 1.0001 1.0001 0 0 0 25.984375 3.9863281 z M 14.984375 16.986328 A 1.0001 1.0001 0 0 0 14.839844 17 L 14 17 L 14 19 L 14 24 C 14 24.56503 13.56503 25 13 25 C 12.43497 25 12 24.56503 12 24 L 12 23 A 1.0001 1.0001 0 1 0 10 23 L 10 24 C 10 25.64497 11.35503 27 13 27 C 14.64497 27 16 25.64497 16 24 L 16 18 L 16 17 L 15.154297 17 A 1.0001 1.0001 0 0 0 14.984375 16.986328 z"></path></svg>