<svg xmlns="http://www.w3.org/2000/svg" id="Layer_1" x="0" y="0" version="1.1" viewBox="0 0 128 128" xml:space="preserve"><path fill="#fff" d="M29,84c0-19.3,15.7-35,35-35s35,15.7,35,35H29z"></path><path fill="#444b54" d="M119,81h-17.1c-0.6-8.2-3.9-15.7-9-21.6L105,47.2c1.2-1.2,1.2-3.1,0-4.2s-3.1-1.2-4.2,0L88.6,55.1 c-5.9-5.1-13.4-8.3-21.6-9V29c0-1.7-1.3-3-3-3s-3,1.3-3,3v17.1c-8.2,0.6-15.7,3.9-21.6,9L27.2,43c-1.2-1.2-3.1-1.2-4.2,0 c-1.2,1.2-1.2,3.1,0,4.2l12.1,12.1c-5.1,5.9-8.3,13.4-9,21.6H9c-1.7,0-3,1.3-3,3s1.3,3,3,3h110c1.7,0,3-1.3,3-3S120.7,81,119,81z M64,52c16.6,0,30.3,12.8,31.9,29H32.1C33.7,64.8,47.4,52,64,52z"></path></svg>