<svg xmlns="http://www.w3.org/2000/svg" id="Layer_1" x="0" y="0" version="1.1" viewBox="0 0 128 128" xml:space="preserve"><path fill="#fff" d="M19,64c0-24.9,20.1-45,45-45s45,20.1,45,45H19z"></path><path fill="#444b54" d="M109 67c-1.7 0-3-1.3-3-3 0-23.2-18.8-42-42-42S22 40.8 22 64c0 1.7-1.3 3-3 3s-3-1.3-3-3c0-26.5 21.5-48 48-48s48 21.5 48 48C112 65.7 110.7 67 109 67zM109 82H19c-1.7 0-3-1.3-3-3s1.3-3 3-3h90c1.7 0 3 1.3 3 3S110.7 82 109 82zM89 97H39c-1.7 0-3-1.3-3-3s1.3-3 3-3h50c1.7 0 3 1.3 3 3S90.7 97 89 97zM69 112H59c-1.7 0-3-1.3-3-3s1.3-3 3-3h10c1.7 0 3 1.3 3 3S70.7 112 69 112z"></path></svg>