<svg xmlns="http://www.w3.org/2000/svg" viewBox="0 0 24 24"><path fill="#f5f5f5" d="M 11 2 C 9.9069372 2 9 2.9069372 9 4 L 9 12.185547 C 7.8430015 13.097167 7 14.41228 7 16 C 7 18.749516 9.2504839 21 12 21 C 14.749516 21 17 18.749516 17 16 C 17 14.41228 16.156999 13.097167 15 12.185547 L 15 12 L 17 12 L 17 10 L 15 10 L 15 8 L 17 8 L 17 6 L 15 6 L 15 4 C 15 2.9069372 14.093063 2 13 2 L 11 2 z M 11 4 L 13 4 L 13 6 L 11 6 L 11 4 z M 11 8 L 13 8 L 13 13.130859 L 13.498047 13.419922 C 14.39835 13.943776 15 14.888155 15 16 C 15 17.668484 13.668484 19 12 19 C 10.331516 19 9 17.668484 9 16 C 9 14.888155 9.6016501 13.943776 10.501953 13.419922 L 11 13.130859 L 11 8 z"></path></svg>